<svg xmlns="http://www.w3.org/2000/svg" xmlns:xlink="http://www.w3.org/1999/xlink" version="1.1" class="marks" width="682" height="394" viewBox="0 0 682 394"><rect width="682" height="394" fill="#202124"/><g fill="none" stroke-miterlimit="10" transform="translate(61,42)"><g class="mark-group role-frame root" role="graphics-object" aria-roledescription="group mark container"><g transform="translate(0,0)"><path class="background" aria-hidden="true" d="M0.5,0.5h600v300h-600Z"/><g><g class="mark-group role-axis" aria-hidden="true"><g transform="translate(0.5,300.5)"><path class="background" aria-hidden="true" d="M0,0h0v0h0Z" pointer-events="none"/><g><g class="mark-rule role-axis-grid" pointer-events="none"><line transform="translate(0,-300)" x2="0" y2="300" stroke="grey" stroke-width="1" opacity="1"/><line transform="translate(55,-300)" x2="0" y2="300" stroke="grey" stroke-width="1" opacity="1"/><line transform="translate(109,-300)" x2="0" y2="300" stroke="grey" stroke-width="1" opacity="1"/><line transform="translate(164,-300)" x2="0" y2="300" stroke="grey" stroke-width="1" opacity="1"/><line transform="translate(218,-300)" x2="0" y2="300" stroke="grey" stroke-width="1" opacity="1"/><line transform="translate(273,-300)" x2="0" y2="300" stroke="grey" stroke-width="1" opacity="1"/><line transform="translate(327,-300)" x2="0" y2="300" stroke="grey" stroke-width="1" opacity="1"/><line transform="translate(382,-300)" x2="0" y2="300" stroke="grey" stroke-width="1" opacity="1"/><line transform="translate(436,-300)" x2="0" y2="300" stroke="grey" stroke-width="1" opacity="1"/><line transform="translate(491,-300)" x2="0" y2="300" stroke="grey" stroke-width="1" opacity="1"/><line transform="translate(545,-300)" x2="0" y2="300" stroke="grey" stroke-width="1" opacity="1"/><line transform="translate(600,-300)" x2="0" y2="300" stroke="grey" stroke-width="1" opacity="1"/></g></g><path class="foreground" aria-hidden="true" d="" pointer-events="none" display="none"/></g></g><g class="mark-group role-axis" aria-hidden="true"><g transform="translate(0.5,0.5)"><path class="background" aria-hidden="true" d="M0,0h0v0h0Z" pointer-events="none"/><g><g class="mark-rule role-axis-grid" pointer-events="none"><line transform="translate(0,300)" x2="600" y2="0" stroke="grey" stroke-width="1" opacity="1"/><line transform="translate(0,267)" x2="600" y2="0" stroke="grey" stroke-width="1" opacity="1"/><line transform="translate(0,233)" x2="600" y2="0" stroke="grey" stroke-width="1" opacity="1"/><line transform="translate(0,200)" x2="600" y2="0" stroke="grey" stroke-width="1" opacity="1"/><line transform="translate(0,167)" x2="600" y2="0" stroke="grey" stroke-width="1" opacity="1"/><line transform="translate(0,133)" x2="600" y2="0" stroke="grey" stroke-width="1" opacity="1"/><line transform="translate(0,100)" x2="600" y2="0" stroke="grey" stroke-width="1" opacity="1"/><line transform="translate(0,67)" x2="600" y2="0" stroke="grey" stroke-width="1" opacity="1"/><line transform="translate(0,33)" x2="600" y2="0" stroke="grey" stroke-width="1" opacity="1"/><line transform="translate(0,0)" x2="600" y2="0" stroke="grey" stroke-width="1" opacity="1"/></g></g><path class="foreground" aria-hidden="true" d="" pointer-events="none" display="none"/></g></g><g class="mark-group role-axis" role="graphics-symbol" aria-roledescription="axis" aria-label="X-axis titled 'Distribution' for a linear scale with values from −4 to 7"><g transform="translate(0.5,300.5)"><path class="background" aria-hidden="true" d="M0,0h0v0h0Z" pointer-events="none"/><g><g class="mark-rule role-axis-tick" pointer-events="none"><line transform="translate(0,0)" x2="0" y2="5" stroke="white" stroke-width="1" opacity="1"/><line transform="translate(55,0)" x2="0" y2="5" stroke="white" stroke-width="1" opacity="1"/><line transform="translate(109,0)" x2="0" y2="5" stroke="white" stroke-width="1" opacity="1"/><line transform="translate(164,0)" x2="0" y2="5" stroke="white" stroke-width="1" opacity="1"/><line transform="translate(218,0)" x2="0" y2="5" stroke="white" stroke-width="1" opacity="1"/><line transform="translate(273,0)" x2="0" y2="5" stroke="white" stroke-width="1" opacity="1"/><line transform="translate(327,0)" x2="0" y2="5" stroke="white" stroke-width="1" opacity="1"/><line transform="translate(382,0)" x2="0" y2="5" stroke="white" stroke-width="1" opacity="1"/><line transform="translate(436,0)" x2="0" y2="5" stroke="white" stroke-width="1" opacity="1"/><line transform="translate(491,0)" x2="0" y2="5" stroke="white" stroke-width="1" opacity="1"/><line transform="translate(545,0)" x2="0" y2="5" stroke="white" stroke-width="1" opacity="1"/><line transform="translate(600,0)" x2="0" y2="5" stroke="white" stroke-width="1" opacity="1"/></g><g class="mark-text role-axis-label" pointer-events="none"><text text-anchor="start" transform="translate(0,15)" font-family="monospace" font-size="10px" fill="white" opacity="1">−4</text><text text-anchor="middle" transform="translate(54.54545454545455,15)" font-family="monospace" font-size="10px" fill="white" opacity="1">−3</text><text text-anchor="middle" transform="translate(109.0909090909091,15)" font-family="monospace" font-size="10px" fill="white" opacity="1">−2</text><text text-anchor="middle" transform="translate(163.63636363636363,15)" font-family="monospace" font-size="10px" fill="white" opacity="1">−1</text><text text-anchor="middle" transform="translate(218.1818181818182,15)" font-family="monospace" font-size="10px" fill="white" opacity="1">0</text><text text-anchor="middle" transform="translate(272.7272727272727,15)" font-family="monospace" font-size="10px" fill="white" opacity="1">1</text><text text-anchor="middle" transform="translate(327.27272727272725,15)" font-family="monospace" font-size="10px" fill="white" opacity="1">2</text><text text-anchor="middle" transform="translate(381.8181818181818,15)" font-family="monospace" font-size="10px" fill="white" opacity="1">3</text><text text-anchor="middle" transform="translate(436.3636363636364,15)" font-family="monospace" font-size="10px" fill="white" opacity="1">4</text><text text-anchor="middle" transform="translate(490.90909090909093,15)" font-family="monospace" font-size="10px" fill="white" opacity="1">5</text><text text-anchor="middle" transform="translate(545.4545454545454,15)" font-family="monospace" font-size="10px" fill="white" opacity="1">6</text><text text-anchor="end" transform="translate(600,15)" font-family="monospace" font-size="10px" fill="white" opacity="1">7</text></g><g class="mark-rule role-axis-domain" pointer-events="none"><line transform="translate(0,0)" x2="600" y2="0" stroke="white" stroke-width="1" opacity="1"/></g><g class="mark-text role-axis-title" pointer-events="none"><text text-anchor="middle" transform="translate(300,30)" font-family="monospace" font-size="11px" font-weight="bold" fill="white" opacity="1">Distribution</text></g></g><path class="foreground" aria-hidden="true" d="" pointer-events="none" display="none"/></g></g><g class="mark-group role-axis" role="graphics-symbol" aria-roledescription="axis" aria-label="Y-axis titled 'Density' for a linear scale with values from 0 to 450"><g transform="translate(0.5,0.5)"><path class="background" aria-hidden="true" d="M0,0h0v0h0Z" pointer-events="none"/><g><g class="mark-rule role-axis-tick" pointer-events="none"><line transform="translate(0,300)" x2="-5" y2="0" stroke="white" stroke-width="1" opacity="1"/><line transform="translate(0,267)" x2="-5" y2="0" stroke="white" stroke-width="1" opacity="1"/><line transform="translate(0,233)" x2="-5" y2="0" stroke="white" stroke-width="1" opacity="1"/><line transform="translate(0,200)" x2="-5" y2="0" stroke="white" stroke-width="1" opacity="1"/><line transform="translate(0,167)" x2="-5" y2="0" stroke="white" stroke-width="1" opacity="1"/><line transform="translate(0,133)" x2="-5" y2="0" stroke="white" stroke-width="1" opacity="1"/><line transform="translate(0,100)" x2="-5" y2="0" stroke="white" stroke-width="1" opacity="1"/><line transform="translate(0,67)" x2="-5" y2="0" stroke="white" stroke-width="1" opacity="1"/><line transform="translate(0,33)" x2="-5" y2="0" stroke="white" stroke-width="1" opacity="1"/><line transform="translate(0,0)" x2="-5" y2="0" stroke="white" stroke-width="1" opacity="1"/></g><g class="mark-text role-axis-label" pointer-events="none"><text text-anchor="end" transform="translate(-7,303)" font-family="monospace" font-size="10px" fill="white" opacity="1">0</text><text text-anchor="end" transform="translate(-7,269.66666666666663)" font-family="monospace" font-size="10px" fill="white" opacity="1">50</text><text text-anchor="end" transform="translate(-7,236.33333333333334)" font-family="monospace" font-size="10px" fill="white" opacity="1">100</text><text text-anchor="end" transform="translate(-7,203.00000000000003)" font-family="monospace" font-size="10px" fill="white" opacity="1">150</text><text text-anchor="end" transform="translate(-7,169.66666666666669)" font-family="monospace" font-size="10px" fill="white" opacity="1">200</text><text text-anchor="end" transform="translate(-7,136.33333333333331)" font-family="monospace" font-size="10px" fill="white" opacity="1">250</text><text text-anchor="end" transform="translate(-7,103.00000000000001)" font-family="monospace" font-size="10px" fill="white" opacity="1">300</text><text text-anchor="end" transform="translate(-7,69.66666666666666)" font-family="monospace" font-size="10px" fill="white" opacity="1">350</text><text text-anchor="end" transform="translate(-7,36.33333333333335)" font-family="monospace" font-size="10px" fill="white" opacity="1">400</text><text text-anchor="end" transform="translate(-7,3)" font-family="monospace" font-size="10px" fill="white" opacity="1">450</text></g><g class="mark-rule role-axis-domain" pointer-events="none"><line transform="translate(0,300)" x2="0" y2="-300" stroke="white" stroke-width="1" opacity="1"/></g><g class="mark-text role-axis-title" pointer-events="none"><text text-anchor="middle" transform="translate(-29.0029296875,150) rotate(-90) translate(0,-2)" font-family="monospace" font-size="11px" font-weight="bold" fill="white" opacity="1">Density</text></g></g><path class="foreground" aria-hidden="true" d="" pointer-events="none" display="none"/></g></g><g class="mark-group role-scope pathgroup" role="graphics-object" aria-roledescription="group mark container"><g transform="translate(0,0)"><path class="background" aria-hidden="true" d="M0,0h600v300h-600Z"/><g><g class="mark-line role-mark marks" role="graphics-object" aria-roledescription="line mark container"><path aria-label="Distribution: −3.37450997165; Density: 4.32320290294; distribution: beta" role="graphics-symbol" aria-roledescription="line mark" d="M34.118,297.118L40.783,296.413L47.448,295.913L54.113,295.436L60.779,294.681L67.444,293.408L74.109,291.534L80.774,289.019L87.439,285.66L94.105,281.033L100.77,274.6L107.435,265.763L114.1,254.004L120.765,239.407L127.431,223.23L134.096,207.487L140.761,193.305L147.426,179.755L154.092,164.935L160.757,148.375L167.422,131.801L174.087,117.131L180.752,104.141L187.418,90.662L194.083,75.001L200.748,57.794L207.413,41.851L214.079,30.896L220.744,28.182L227.409,34.996L234.074,49.638L240.739,68.086L247.405,86.184L254.07,101.587L260.735,114.301L267.4,126.135L274.065,139.497L280.731,155.736L287.396,174.1L294.061,192.477L300.726,209.123L307.392,223.502L314.057,235.927L320.722,246.938L327.387,256.9L334.052,265.844L340.718,273.659L347.383,280.338L354.048,285.969L360.713,290.592L367.379,294.184" stroke="#368BC1" stroke-width="2" opacity="1"/></g></g><path class="foreground" aria-hidden="true" d="" display="none"/></g><g transform="translate(0,0)"><path class="background" aria-hidden="true" d="M0,0h600v300h-600Z"/><g><g class="mark-line role-mark marks" role="graphics-object" aria-roledescription="line mark container"><path aria-label="Distribution: −2.51835278853; Density: 15.580534723; distribution: binomial" role="graphics-symbol" aria-roledescription="line mark" d="M80.817,289.613L86.87,286.66L92.922,282.666L98.975,277.4L105.027,271.117L111.08,263.469L117.132,252.965L123.185,238.721L129.237,222.553L135.29,207.471L141.342,193.37L147.395,176.456L153.447,154.926L159.5,133.064L165.552,116.059L171.605,102.006L177.657,84.323L183.71,63.002L189.762,47.572L195.815,45.177L201.868,50.496L207.92,53.134L213.973,51.822L220.025,54.18L226.078,63.309L232.13,72.654L238.183,76.691L244.235,79.861L250.288,89.695L256.34,105.414L262.393,119.658L268.445,129.832L274.498,141.372L280.55,158.95L286.603,179.691L292.655,197.596L298.708,211.14L304.76,223.284L310.813,235.894L316.865,247.512L322.918,256.404L328.97,263.14L335.023,269.307L341.075,275.256L347.128,280.181L353.181,283.671L359.233,286.189L365.286,288.245L371.338,289.881L377.391,291.088L383.443,292.219" stroke="#DDA90D" stroke-width="2" opacity="1"/></g></g><path class="foreground" aria-hidden="true" d="" display="none"/></g><g transform="translate(0,0)"><path class="background" aria-hidden="true" d="M0,0h600v300h-600Z"/><g><g class="mark-line role-mark marks" role="graphics-object" aria-roledescription="line mark container"><path aria-label="Distribution: −3.117355781; Density: 4.94043423457; distribution: normal" role="graphics-symbol" aria-roledescription="line mark" d="M48.144,296.706L54.601,295.356L61.058,293.646L67.515,291.471L73.973,288.859L80.43,285.924L86.887,282.667L93.344,278.832L99.801,273.889L106.258,267.187L112.715,258.313L119.172,247.465L125.629,235.371L132.086,222.582L138.543,208.831L145,193.224L151.457,175.044L157.914,154.368L164.371,132.161L170.829,109.992L177.286,89.461L183.743,71.759L190.2,57.793L196.657,48.529L203.114,44.724L209.571,46.169L216.028,51.512L222.485,58.893L228.942,66.554L235.399,73.211L241.856,78.724L248.313,84.703L254.77,93.866L261.228,107.959L267.685,125.967L274.142,144.585L280.599,160.811L287.056,174.157L293.513,186.329L299.97,199.168L306.427,213.184L312.884,227.69L319.341,241.694L325.798,254.505L332.255,265.754L338.712,275.126L345.169,282.301L351.627,287.21L358.084,290.285L364.541,292.352L370.998,294.169" stroke="#CC771F" stroke-width="2" opacity="1"/></g></g><path class="foreground" aria-hidden="true" d="" display="none"/></g><g transform="translate(0,0)"><path class="background" aria-hidden="true" d="M0,0h600v300h-600Z"/><g><g class="mark-line role-mark marks" role="graphics-object" aria-roledescription="line mark container"><path aria-label="Distribution: −2.32824123602; Density: 9.84011668191; distribution: gamma" role="graphics-symbol" aria-roledescription="line mark" d="M91.187,293.44L97.773,288.653L104.359,281.628L110.945,271.901L117.531,258.861L124.117,241.643L130.703,219.688L137.289,193.721L143.875,166.051L150.461,139.676L157.047,116.96L163.632,98.812L170.218,84.513L176.804,72.076L183.39,59.436L189.976,46.394L196.562,35.743L203.148,31.718L209.734,36.545L216.32,48.462L222.906,63.17L229.492,76.709L236.078,87.089L242.664,94.665L249.25,101.966L255.836,112.438L262.422,128.134L269.008,148.129L275.594,169.061L282.18,187.383L288.766,201.51L295.352,212.209L301.938,221.294L308.524,230.202L315.11,239.505L321.696,249.033L328.282,258.189L334.868,266.367L341.454,273.271L348.04,278.841L354.626,282.978L361.212,285.571L367.797,286.904L374.383,287.823L380.969,289.207L387.555,291.296L394.141,293.63L400.727,295.547L407.313,296.697L413.899,297.217L420.485,297.541" stroke="#BB4430" stroke-width="2" opacity="1"/></g></g><path class="foreground" aria-hidden="true" d="" display="none"/></g><g transform="translate(0,0)"><path class="background" aria-hidden="true" d="M0,0h600v300h-600Z"/><g><g class="mark-line role-mark marks" role="graphics-object" aria-roledescription="line mark container"><path aria-label="Distribution: −1.95035354738; Density: 24.9287238111; distribution: gumbel" role="graphics-symbol" aria-roledescription="line mark" d="M111.799,283.381L120.5,266.264L129.201,242.85L137.902,213.303L146.604,174.606L155.305,126.372L164.006,77.829L172.707,41.966L181.408,22.703L190.109,14.058L198.81,11.157L207.512,13.638L216.213,20.582L224.914,32.334L233.615,53.491L242.316,85.346L251.017,120.405L259.719,150.358L268.42,174.286L277.121,195.588L285.822,215.261L294.523,231.678L303.224,244.281L311.925,254.047L320.627,261.827L329.328,267.771L338.029,271.924L346.73,275.206L355.431,278.752L364.132,282.483L372.834,285.69L381.535,288.159L390.236,290.131L398.937,291.972L407.638,293.889L416.339,295.734L425.04,297.153L433.742,297.97L442.443,298.339L451.144,298.503L459.845,298.693L468.546,299.064L477.247,299.496L485.949,299.728L494.65,299.632L503.351,299.277L512.052,298.93L520.753,298.838L529.454,298.893L538.155,298.86L546.857,298.859" stroke="#8A9A67" stroke-width="2" opacity="1"/></g></g><path class="foreground" aria-hidden="true" d="" display="none"/></g><g transform="translate(0,0)"><path class="background" aria-hidden="true" d="M0,0h600v300h-600Z"/><g><g class="mark-line role-mark marks" role="graphics-object" aria-roledescription="line mark container"><path aria-label="Distribution: −2.44420571928; Density: 12.7978085933; distribution: poisson" role="graphics-symbol" aria-roledescription="line mark" d="M84.862,291.468L92.059,286.49L99.256,279.703L106.453,270.443L113.65,257.891L120.848,241.582L128.045,222.197L135.242,201.761L142.439,182.571L149.637,165.848L156.834,150.892L164.031,134.714L171.228,113.603L178.426,86.686L185.623,57.842L192.82,33.501L200.017,19.142L207.215,17.371L214.412,26.799L221.609,42.759L228.806,60.552L236.004,77.685L243.201,93.454L250.398,107.634L257.595,120.402L264.793,133.372L271.99,149.271L279.187,169.205L286.384,190.376L293.581,208.257L300.779,221.037L307.976,230.595L315.173,239.624L322.37,249.216L329.568,259.033L336.765,268.388L343.962,276.716L351.159,283.556L358.357,288.517L365.554,291.512L372.751,292.957L379.948,293.549L387.146,293.885L394.343,294.324L401.54,295.022L408.737,295.984L415.935,297.071L423.132,298.015L430.329,298.574L437.526,298.761L444.724,298.843" stroke="#8B5260" stroke-width="2" opacity="1"/></g></g><path class="foreground" aria-hidden="true" d="" display="none"/></g></g><g class="mark-group role-legend" role="graphics-symbol" aria-roledescription="legend" aria-label="Symbol legend titled 'distribution' for stroke color with 6 values: beta, binomial, gamma, gumbel, normal, poisson"><g transform="translate(502,18)"><path class="background" aria-hidden="true" d="M0,0h80v92h-80Z" pointer-events="none"/><g><g class="mark-group role-legend-entry"><g transform="translate(0,16)"><path class="background" aria-hidden="true" d="M0,0h0v0h0Z" pointer-events="none"/><g><g class="mark-group role-scope distribution_legend_entries" role="graphics-object" aria-roledescription="group mark container"><g transform="translate(0,0)"><path class="background" aria-hidden="true" d="M0,0h64.0078125v11h-64.0078125Z" opacity="1"/><g><g class="mark-symbol role-legend-symbol distribution_legend_symbols"><path transform="translate(6,6)" d="M-5,0L5,0" stroke="#368BC1" stroke-width="1.5" opacity="1"/></g><g class="mark-text role-legend-label distribution_legend_labels"><text text-anchor="start" transform="translate(16,9)" font-family="monospace" font-size="10px" fill="white" opacity="1">beta</text></g></g><path class="foreground" aria-hidden="true" d="" display="none"/></g><g transform="translate(0,13)"><path class="background" aria-hidden="true" d="M0,0h64.0078125v11h-64.0078125Z" opacity="1"/><g><g class="mark-symbol role-legend-symbol distribution_legend_symbols"><path transform="translate(6,6)" d="M-5,0L5,0" stroke="#DDA90D" stroke-width="1.5" opacity="1"/></g><g class="mark-text role-legend-label distribution_legend_labels"><text text-anchor="start" transform="translate(16,9)" font-family="monospace" font-size="10px" fill="white" opacity="1">binomial</text></g></g><path class="foreground" aria-hidden="true" d="" display="none"/></g><g transform="translate(0,26)"><path class="background" aria-hidden="true" d="M0,0h64.0078125v11h-64.0078125Z" opacity="1"/><g><g class="mark-symbol role-legend-symbol distribution_legend_symbols"><path transform="translate(6,6)" d="M-5,0L5,0" stroke="#BB4430" stroke-width="1.5" opacity="1"/></g><g class="mark-text role-legend-label distribution_legend_labels"><text text-anchor="start" transform="translate(16,9)" font-family="monospace" font-size="10px" fill="white" opacity="1">gamma</text></g></g><path class="foreground" aria-hidden="true" d="" display="none"/></g><g transform="translate(0,39)"><path class="background" aria-hidden="true" d="M0,0h64.0078125v11h-64.0078125Z" opacity="1"/><g><g class="mark-symbol role-legend-symbol distribution_legend_symbols"><path transform="translate(6,6)" d="M-5,0L5,0" stroke="#8A9A67" stroke-width="1.5" opacity="1"/></g><g class="mark-text role-legend-label distribution_legend_labels"><text text-anchor="start" transform="translate(16,9)" font-family="monospace" font-size="10px" fill="white" opacity="1">gumbel</text></g></g><path class="foreground" aria-hidden="true" d="" display="none"/></g><g transform="translate(0,52)"><path class="background" aria-hidden="true" d="M0,0h64.0078125v11h-64.0078125Z" opacity="1"/><g><g class="mark-symbol role-legend-symbol distribution_legend_symbols"><path transform="translate(6,6)" d="M-5,0L5,0" stroke="#CC771F" stroke-width="1.5" opacity="1"/></g><g class="mark-text role-legend-label distribution_legend_labels"><text text-anchor="start" transform="translate(16,9)" font-family="monospace" font-size="10px" fill="white" opacity="1">normal</text></g></g><path class="foreground" aria-hidden="true" d="" display="none"/></g><g transform="translate(0,65)"><path class="background" aria-hidden="true" d="M0,0h64.0078125v11h-64.0078125Z" opacity="1"/><g><g class="mark-symbol role-legend-symbol distribution_legend_symbols"><path transform="translate(6,6)" d="M-5,0L5,0" stroke="#8B5260" stroke-width="1.5" opacity="1"/></g><g class="mark-text role-legend-label distribution_legend_labels"><text text-anchor="start" transform="translate(16,9)" font-family="monospace" font-size="10px" fill="white" opacity="1">poisson</text></g></g><path class="foreground" aria-hidden="true" d="" display="none"/></g></g></g><path class="foreground" aria-hidden="true" d="" pointer-events="none" display="none"/></g></g><g class="mark-text role-legend-title" pointer-events="none"><text text-anchor="start" transform="translate(0,9)" font-family="monospace" font-size="11px" font-weight="bold" fill="white" opacity="1">distribution</text></g></g><path class="foreground" aria-hidden="true" d="" pointer-events="none" display="none"/></g></g><g class="mark-group role-title"><g transform="translate(300,-22)"><path class="background" aria-hidden="true" d="M0,0h0v0h0Z" pointer-events="none"/><g><g class="mark-text role-title-text" role="graphics-symbol" aria-roledescription="title" aria-label="Title text 'Overlayed Densities'" pointer-events="none"><text text-anchor="middle" transform="translate(0,10)" font-family="monospace" font-size="13px" font-weight="bold" fill="white" opacity="1">Overlayed Densities</text></g></g><path class="foreground" aria-hidden="true" d="" pointer-events="none" display="none"/></g></g></g><path class="foreground" aria-hidden="true" d="" display="none"/></g></g></g></svg>